<svg xmlns="http://www.w3.org/2000/svg" viewBox="0 0 900 740" role="img" aria-labelledby="title desc">
  <title id="title">APCSNSC union emblem</title>
  <desc id="desc">A green and blue shield illustration with laurel accents and the APCSNSC logo centered.</desc>
  <defs>
    <linearGradient id="bg" x1="0" y1="0" x2="1" y2="1">
      <stop offset="0%" stop-color="#1f7a63"/>
      <stop offset="52%" stop-color="#13634d"/>
      <stop offset="100%" stop-color="#173f67"/>
    </linearGradient>
    <radialGradient id="glow" cx="50%" cy="45%" r="55%">
      <stop offset="0%" stop-color="#b9ffd8" stop-opacity="0.72"/>
      <stop offset="55%" stop-color="#7cf0b9" stop-opacity="0.28"/>
      <stop offset="100%" stop-color="#7cf0b9" stop-opacity="0"/>
    </radialGradient>
    <linearGradient id="shield" x1="0" y1="0" x2="0" y2="1">
      <stop offset="0%" stop-color="#ffffff"/>
      <stop offset="100%" stop-color="#dff6ea"/>
    </linearGradient>
    <linearGradient id="inner" x1="0" y1="0" x2="1" y2="1">
      <stop offset="0%" stop-color="#2b8e6e"/>
      <stop offset="100%" stop-color="#167653"/>
    </linearGradient>
    <filter id="shadow" x="-20%" y="-20%" width="140%" height="140%">
      <feDropShadow dx="0" dy="12" stdDeviation="18" flood-color="#08172a" flood-opacity="0.35"/>
    </filter>
  </defs>

  <rect width="900" height="740" rx="42" fill="url(#bg)"/>
  <circle cx="450" cy="360" r="250" fill="url(#glow)" opacity="0.8"/>
  <circle cx="450" cy="360" r="275" fill="none" stroke="#ffffff" stroke-opacity="0.08" stroke-width="2"/>

  <g opacity="0.45">
    <path d="M164 514c46 18 77 19 104 5 20-11 34-30 39-58-30 19-69 26-105 18-18 22-24 31-38 35z" fill="#9df3c6"/>
    <path d="M736 514c-46 18-77 19-104 5-20-11-34-30-39-58 30 19 69 26 105 18 18 22 24 31 38 35z" fill="#9df3c6"/>
  </g>

  <g filter="url(#shadow)">
    <path d="M450 120c-75 0-140 32-183 67v180c0 115 87 194 183 253 96-59 183-138 183-253V187c-43-35-108-67-183-67z" fill="url(#shield)"/>
    <path d="M450 145c-67 0-125 28-164 60v165c0 101 74 170 164 225 90-55 164-124 164-225V205c-39-32-97-60-164-60z" fill="url(#inner)"/>
    <path d="M450 190c-10 0-18 8-18 18v19h-20c-10 0-18 8-18 18s8 18 18 18h20v19c0 10 8 18 18 18s18-8 18-18v-19h20c10 0 18-8 18-18s-8-18-18-18h-20v-19c0-10-8-18-18-18z" fill="#e9fff5" opacity="0.95"/>
    <path d="M353 313c0-41 44-74 97-74s97 33 97 74v25c0 12-10 22-22 22H375c-12 0-22-10-22-22v-25z" fill="#e8fff3" opacity="0.16"/>
    <circle cx="450" cy="392" r="73" fill="#f2fff8" opacity="0.12"/>
    <path d="M450 325c-22 0-40 18-40 40v40h80v-40c0-22-18-40-40-40z" fill="#e8fff3" opacity="0.32"/>
    <path d="M395 410c0-30 25-55 55-55s55 25 55 55v8h-110v-8z" fill="#e8fff3" opacity="0.95"/>
    <path d="M426 386c0 12 10 22 24 22s24-10 24-22-10-22-24-22-24 10-24 22z" fill="#fefefe"/>
    <path d="M412 502c-5 0-10-4-10-10v-22c0-18 12-36 32-45 5-2 10 2 10 7v39h24v-39c0-5 5-9 10-7 20 9 32 27 32 45v22c0 6-5 10-10 10h-88z" fill="#fefefe" opacity="0.9"/>
  </g>

  <g opacity="0.96">
    <path d="M300 238c-26 52-39 112-39 179 0 14 1 27 2 40" fill="none" stroke="#dff7e9" stroke-width="13" stroke-linecap="round"/>
    <path d="M600 238c26 52 39 112 39 179 0 14-1 27-2 40" fill="none" stroke="#dff7e9" stroke-width="13" stroke-linecap="round"/>
    <g fill="#dff7e9">
      <ellipse cx="274" cy="293" rx="12" ry="28" transform="rotate(-28 274 293)"/>
      <ellipse cx="260" cy="335" rx="12" ry="28" transform="rotate(-22 260 335)"/>
      <ellipse cx="252" cy="381" rx="12" ry="28" transform="rotate(-16 252 381)"/>
      <ellipse cx="246" cy="428" rx="12" ry="28" transform="rotate(-10 246 428)"/>
      <ellipse cx="626" cy="293" rx="12" ry="28" transform="rotate(28 626 293)"/>
      <ellipse cx="640" cy="335" rx="12" ry="28" transform="rotate(22 640 335)"/>
      <ellipse cx="648" cy="381" rx="12" ry="28" transform="rotate(16 648 381)"/>
      <ellipse cx="654" cy="428" rx="12" ry="28" transform="rotate(10 654 428)"/>
    </g>
  </g>

  <g>
    <image href="../../uploads/logo.png" x="228" y="102" width="444" height="444" preserveAspectRatio="xMidYMid meet"/>
  </g>
</svg>
