<svg xmlns="http://www.w3.org/2000/svg" width="900" height="260" viewBox="0 0 900 260" role="img" aria-label="Default signature placeholder">
  <rect width="900" height="260" rx="20" fill="#f4f8fc"/>
  <path d="M92 180c48-72 74-77 106-18 23 41 36 35 60-9 15-28 26-44 40-44 21 0 20 43 46 43 31 0 43-64 78-64 24 0 25 34 35 64 15 45 23 58 49 58 35 0 63-22 100-81" fill="none" stroke="#143f75" stroke-width="8" stroke-linecap="round" stroke-linejoin="round"/>
  <path d="M632 132h174" stroke="#143f75" stroke-width="6" stroke-linecap="round"/>
  <text x="719" y="174" text-anchor="middle" font-family="Arial, sans-serif" font-size="34" font-weight="700" fill="#143f75">Signature</text>
</svg>